<?xml version="1.0" encoding="UTF-8"?>
<svg id="Capa_2" data-name="Capa 2" xmlns="http://www.w3.org/2000/svg" viewBox="0 0 1473.37 119.94">
  <defs>
    <style>
      .cls-1 {
        fill: #fff;
      }

      .cls-2 {
        fill: none;
        stroke: #fff;
        stroke-miterlimit: 10;
        stroke-width: 3px;
      }
    </style>
  </defs>
  <g id="Capa_1_copia" data-name="Capa 1 copia">
    <g>
      <path class="cls-1" d="M392.21,74.53c0,6.03-1.15,11.79-3.45,17.27-2.3,5.49-5.44,10.3-9.42,14.44-3.98,4.14-8.65,7.43-14,9.86-5.36,2.43-11.05,3.64-17.08,3.64h-79.13c-6.03,0-11.72-1.21-17.08-3.64-5.36-2.43-10.03-5.71-14-9.86-3.98-4.14-7.12-8.96-9.42-14.44-2.3-5.48-3.45-11.24-3.45-17.27V30.57h39.69v43.96c0,3.52,1.21,6.49,3.64,8.92,2.43,2.43,5.4,3.64,8.92,3.64h62.55c3.52,0,6.49-1.21,8.92-3.64s3.64-5.4,3.64-8.92V30.57h39.69v43.96Z"/>
      <path class="cls-1" d="M402.26,30.57h53l48.86,60.29,48.86-60.29h55.01V118.49h-39.69v-51.62l-41.83,51.62h-44.71l-39.81-49.11v49.11h-39.69V30.57Z"/>
      <path class="cls-1" d="M800.16,118.49h-44.71l-10.17-12.56h-77.37l-10.17,12.56h-44.71l71.21-87.92h44.71l71.21,87.92Zm-75.23-37.68l-18.34-22.61-18.34,22.61h36.67Z"/>
      <path class="cls-1" d="M805.18,30.57h39.69l87.67,50.24V30.57h39.69V118.49h-39.69l-87.67-50.24v50.24h-39.69V30.57Z"/>
      <path class="cls-1" d="M982.28,118.49V30.57h126.86c6.03,0,11.72,1.15,17.08,3.45,5.36,2.3,10.03,5.44,14,9.42,3.98,3.98,7.12,8.65,9.42,14,2.3,5.36,3.45,11.05,3.45,17.08s-1.15,11.72-3.45,17.08c-2.3,5.36-5.44,10.03-9.42,14s-8.65,7.12-14,9.42c-5.36,2.3-11.05,3.45-17.08,3.45h-126.86Zm39.56-31.4h78.5c3.93,0,7.12-1.17,9.55-3.52,2.43-2.34,3.64-5.36,3.64-9.04s-1.21-6.7-3.64-9.04c-2.43-2.34-5.61-3.52-9.55-3.52h-78.5v25.12Z"/>
      <path class="cls-1" d="M1328.93,118.49h-44.71l-10.17-12.56h-77.37l-10.17,12.56h-44.71l71.21-87.92h44.71l71.21,87.92Zm-75.23-37.68l-18.34-22.61-18.34,22.61h36.67Z"/>
      <path class="cls-1" d="M1359.95,88.34l-73.73-57.78h52.38l41.2,32.4,41.2-32.4h52.38l-73.73,57.78v30.14h-39.69v-30.14Z"/>
    </g>
    <polygon points="107.84 0 0 119.87 173.9 119.87 229.3 0 107.84 0"/>
    <polyline id="MONTAÑA" class="cls-2" points="123.82 102.97 123.23 103.83 120.56 107.43 112.85 103.83 105.25 107.43 101.96 103.83 101.03 102.81"/>
    <g id="K">
      <polygon class="cls-1" points="37 77.93 37 119.85 77.8 119.85 112.78 95.97 146.77 119.94 173.9 119.94 181.3 103.68 141.91 76.62 206.36 33.22 148.08 32.92 77.8 80.91 77.8 33.22 37 77.93"/>
    </g>
  </g>
</svg>