<?xml version="1.0" encoding="UTF-8"?>
<svg id="Capa_2" data-name="Capa 2" xmlns="http://www.w3.org/2000/svg" viewBox="0 0 760.61 399.55">
  <defs>
    <style>
      .cls-1 {
        fill: #fff;
      }

      .cls-2 {
        stroke: #000;
      }

      .cls-2, .cls-3 {
        fill: none;
        stroke-miterlimit: 10;
      }

      .cls-3 {
        stroke: #fff;
        stroke-width: 4px;
      }
    </style>
  </defs>
  <g>
    <path d="M752.44,.74H360.64c-1.48,0-2.89,.63-3.89,1.73L1.12,397.77H577.12L757.18,8.16c1.6-3.46-.93-7.42-4.74-7.42Z"/>
    <path class="cls-2" d="M752.44,.74H360.64c-1.48,0-2.89,.63-3.89,1.73L1.12,397.77H577.12L757.18,8.16c1.6-3.46-.93-7.42-4.74-7.42Z"/>
  </g>
  <path id="MONTAÑA" class="cls-3" d="M409.29,344.66l-5.45,7.33c-1.98,2.67-5.57,3.57-8.58,2.17l-17.38-8.11c-1.89-.88-4.07-.88-5.95,.02l-17.55,8.3c-2.78,1.31-6.09,.66-8.16-1.6l-7.41-8.1"/>
  <g id="K">
    <path class="cls-1" d="M123.68,260.9v131.58c0,2.89,2.34,5.23,5.23,5.23h128.31c1.05,0,2.08-.32,2.95-.91l111.5-76.13c1.8-1.23,4.18-1.21,5.96,.05l108.28,76.36c.88,.62,1.93,.96,3.01,.96h84.85c2.05,0,3.91-1.2,4.76-3.06l21.3-46.82c1.05-2.31,.29-5.04-1.8-6.47l-120.52-82.78c-3.04-2.09-3.02-6.58,.04-8.64l193.01-129.98c4.27-2.87,2.25-9.54-2.89-9.56l-174.43-.92c-1.06,0-2.1,.31-2.98,.91l-223.24,152.48c-3.47,2.37-8.18-.11-8.18-4.32V124.27c0-4.77-5.87-7.05-9.09-3.52l-124.69,136.63c-.88,.96-1.37,2.22-1.37,3.52Z"/>
    <path class="cls-1" d="M122.18,260.9c0,12.13,0,24.27,0,36.4,0,21.84,0,43.67,0,65.51v23.18c0,4.53-1,10.69,4.29,12.75,1.49,.58,3.09,.46,4.66,.46h120.69c3.24,0,6.66,.46,9.5-1.39,11.62-7.58,22.95-15.67,34.4-23.49,17.95-12.26,35.9-24.51,53.85-36.77,6.07-4.15,12.15-8.3,18.22-12.44,2.87-1.96,5.95-5.12,9.47-2.82,11.75,7.68,23.02,16.23,34.48,24.32,17.67,12.46,35.34,24.92,53.01,37.38,5.67,4,11.34,7.99,17,11.99,2.8,1.98,4.97,3.54,8.59,3.54h80.14c1.78,0,3.8,.21,5.5-.4,3.12-1.11,4.08-3.98,5.31-6.69l12.37-27.19c1.87-4.12,3.75-8.23,5.62-12.35,1.06-2.33,2.7-4.98,2.44-7.61-.42-4.24-5.44-6.61-8.59-8.77-6.11-4.19-12.21-8.39-18.32-12.58-17.88-12.28-35.75-24.56-53.63-36.84-13.36-9.17-26.71-18.35-40.07-27.52-.92-.63-1.93-1.21-2.8-1.92-2.37-1.95-1.78-4.79,.44-6.43,2.59-1.91,5.37-3.62,8.04-5.42,12.91-8.69,25.82-17.39,38.73-26.08,18.16-12.23,36.31-24.45,54.47-36.68,17.62-11.87,35.25-23.74,52.87-35.61,11.31-7.62,22.63-15.24,33.94-22.86,1.94-1.31,4.61-2.62,6.1-4.49,3.57-4.47,.09-10.6-5.27-10.89-.78-.04-1.58,0-2.36-.01-14.02-.07-28.03-.15-42.05-.22-22.1-.12-44.2-.23-66.3-.35-17.79-.09-35.57-.19-53.36-.28-3.38-.02-6.8-.17-10.18-.05-2.75,.09-4.47,1.5-6.6,2.95-9.3,6.35-18.6,12.71-27.91,19.06-16.1,11-32.2,21.99-48.3,32.99-18.61,12.71-37.22,25.42-55.83,38.13-16.85,11.51-33.7,23.02-50.55,34.53-10.82,7.39-21.65,14.78-32.47,22.18-1.8,1.23-3.57,2.62-5.45,3.72-3.13,1.83-5.88-.3-5.98-3.59-.05-1.66,0-3.34,0-5,0-17.93,0-35.86,0-53.79,0-20.34,0-40.67,0-61.01,0-4.58,.13-9.18,0-13.76-.19-6.94-7.76-9.19-12.24-4.35-8.14,8.79-16.16,17.7-24.24,26.55l-43.59,47.76c-13.55,14.84-27.1,29.69-40.64,44.53l-11.92,13.06c-2.35,2.58-5.25,4.96-5.53,8.66-.14,1.93,2.86,1.92,3,0,.22-2.91,3.93-5.75,5.73-7.73l13.31-14.59c13.76-15.08,27.52-30.16,41.28-45.23s28.36-31.07,42.54-46.61c7.47-8.19,14.75-16.62,22.45-24.6,2.48-2.57,6.5-1.7,6.83,2.2,.09,1.09,0,2.23,0,3.32,0,6.5,0,13.01,0,19.51,0,21.26,0,42.52,0,63.78,0,15.38,0,30.76,0,46.13,0,1.74-.05,3.43,.84,5.03,1.98,3.57,6.43,4.3,9.74,2.24,1.99-1.24,3.89-2.66,5.83-3.98,10.9-7.44,21.8-14.89,32.7-22.33,16.69-11.4,33.38-22.8,50.07-34.2,18.46-12.61,36.93-25.22,55.39-37.83,16.01-10.93,32.02-21.87,48.03-32.8,9.37-6.4,18.74-12.8,28.11-19.2,1.66-1.13,3.3-2.61,5.38-2.73,3.41-.19,6.89,.04,10.3,.05,17.65,.09,35.3,.19,52.95,.28,21.87,.12,43.73,.23,65.6,.35,14.19,.08,28.38,.15,42.58,.23,.91,0,1.84-.06,2.75,.01,3.84,.3,4.92,4.6,1.99,6.9-2.18,1.71-4.66,3.14-6.96,4.69-12.25,8.25-24.5,16.5-36.75,24.75-17.83,12.01-35.66,24.02-53.49,36.02s-35.35,23.81-53.03,35.71c-12.04,8.11-24.08,16.22-36.13,24.33-2.11,1.42-4.28,2.79-6.35,4.28-3.98,2.85-4.12,8.36-.13,11.3,.66,.49,1.36,.93,2.04,1.4,12.56,8.63,25.12,17.26,37.68,25.88,17.89,12.29,35.77,24.57,53.66,36.86,6.51,4.47,13.02,8.95,19.54,13.42,2.51,1.73,5.69,3.31,7.88,5.45,2.59,2.54,.14,6.02-1.04,8.62-1.91,4.21-3.83,8.41-5.74,12.62-4.06,8.91-8.11,17.83-12.17,26.74-1.08,2.37-1.84,5.14-4.95,5.34-1.76,.12-3.57,0-5.34,0h-59.63c-6.39,0-12.84,.26-19.22,0-3-.12-5.7-2.79-8.06-4.46-6.21-4.38-12.41-8.75-18.62-13.13-17.68-12.47-35.36-24.93-53.04-37.4-7.15-5.04-14.29-10.08-21.44-15.12-3.27-2.3-6.46-4.79-9.84-6.94-4.6-2.92-8.26,.37-11.89,2.85-5.92,4.04-11.85,8.09-17.77,12.13-17.77,12.14-35.55,24.27-53.32,36.41-11.77,8.04-23.41,16.35-35.35,24.14-2.47,1.61-5.22,1.2-8.07,1.2h-22.05c-21.52,0-43.03,0-64.55,0h-26.01c-3.45,0-7.11,.36-10.54,0-5.21-.54-3.73-8.57-3.73-12.24,0-8.16,0-16.31,0-24.47,0-21.63,0-43.26,0-64.88,0-11.24,0-22.47,0-33.71,0-1.93-3-1.93-3,0Z"/>
  </g>
</svg>